<svg width="331" height="331" viewBox="0 0 331 331" fill="none" xmlns="http://www.w3.org/2000/svg">
<rect x="2.5" y="2.5" width="326" height="326" rx="37.5" stroke="#B075EB" stroke-width="5"/>
<rect x="25.5" y="98.5" width="280" height="207" rx="27.5" stroke="#B075EB" stroke-width="5"/>
<path d="M51 140.5C51 133.596 56.5964 128 63.5 128H195.5C202.404 128 208 133.596 208 140.5V140.5C208 147.404 202.404 153 195.5 153H63.5C56.5964 153 51 147.404 51 140.5V140.5Z" fill="#B075EB"/>
<path d="M51 201C51 196.029 55.0294 192 60 192H273C277.971 192 282 196.029 282 201V201C282 205.971 277.971 210 273 210H60C55.0294 210 51 205.971 51 201V201Z" fill="#B075EB"/>
<path d="M51 232C51 227.029 55.0294 223 60 223H273C277.971 223 282 227.029 282 232V232C282 236.971 277.971 241 273 241H60C55.0294 241 51 236.971 51 232V232Z" fill="#B075EB"/>
<path d="M51 263C51 258.029 55.0294 254 60 254H273C277.971 254 282 258.029 282 263V263C282 267.971 277.971 272 273 272H60C55.0294 272 51 267.971 51 263V263Z" fill="#B075EB"/>
<path d="M62 49C62 57.8366 54.8366 65 46 65C37.1634 65 30 57.8366 30 49C30 40.1634 37.1634 33 46 33C54.8366 33 62 40.1634 62 49Z" fill="#DC3437"/>
<path d="M154.23 44.4211H147.698C147.578 43.5759 147.335 42.8252 146.967 42.1689C146.599 41.5028 146.127 40.936 145.55 40.4687C144.973 40.0013 144.307 39.6434 143.551 39.3948C142.806 39.1462 141.995 39.0219 141.12 39.0219C139.539 39.0219 138.162 39.4147 136.989 40.2002C135.816 40.9758 134.906 42.1093 134.259 43.6008C133.613 45.0823 133.29 46.882 133.29 48.9999C133.29 51.1775 133.613 53.007 134.259 54.4885C134.916 55.9701 135.831 57.0887 137.004 57.8444C138.177 58.6001 139.534 58.9779 141.076 58.9779C141.941 58.9779 142.741 58.8636 143.477 58.6349C144.223 58.4062 144.884 58.0731 145.46 57.6356C146.037 57.1881 146.514 56.6462 146.892 56.0099C147.28 55.3735 147.549 54.6476 147.698 53.8323L154.23 53.8621C154.061 55.2641 153.639 56.6164 152.963 57.9189C152.296 59.2116 151.397 60.3699 150.263 61.3941C149.139 62.4083 147.797 63.2137 146.236 63.8103C144.685 64.3969 142.93 64.6903 140.971 64.6903C138.247 64.6903 135.811 64.0738 133.663 62.8408C131.525 61.6079 129.835 59.8231 128.592 57.4864C127.359 55.1498 126.742 52.3209 126.742 48.9999C126.742 45.6689 127.369 42.8351 128.622 40.4985C129.875 38.1618 131.575 36.382 133.723 35.159C135.87 33.926 138.286 33.3096 140.971 33.3096C142.741 33.3096 144.382 33.5581 145.893 34.0553C147.414 34.5525 148.762 35.2783 149.935 36.2329C151.108 37.1775 152.063 38.3358 152.799 39.708C153.544 41.0802 154.022 42.6512 154.23 44.4211Z" fill="#DC3437"/>
<path d="M101.562 64.2728V33.7273H122.145V39.0519H108.021V46.3303H121.086V51.6549H108.021V58.9482H122.205V64.2728H101.562Z" fill="#DC3437"/>
<path d="M74 64.2728V33.7273H86.0511C88.358 33.7273 90.3267 34.1399 91.9574 34.9652C93.598 35.7806 94.8459 36.9389 95.701 38.4404C96.5661 39.9318 96.9986 41.6868 96.9986 43.7053C96.9986 45.7337 96.5611 47.4787 95.6861 48.9404C94.8111 50.3921 93.5433 51.5057 91.8828 52.2813C90.2322 53.0568 88.2337 53.4446 85.8871 53.4446H77.8182V48.2543H84.843C86.076 48.2543 87.1001 48.0853 87.9155 47.7472C88.7308 47.4091 89.3374 46.902 89.7351 46.2259C90.1428 45.5497 90.3466 44.7095 90.3466 43.7053C90.3466 42.6911 90.1428 41.836 89.7351 41.1399C89.3374 40.4439 88.7259 39.9169 87.9006 39.559C87.0852 39.1911 86.0561 39.0071 84.8132 39.0071H80.4581V64.2728H74ZM90.4957 50.3722L98.0874 64.2728H90.9581L83.5305 50.3722H90.4957Z" fill="#DC3437"/>
</svg>
